/* XPM */
static char *_77a13ccae4e42d7fc08088eda6f0096EtvNsdg4Dj7QdJYT[] = {
/* columns rows colors chars-per-pixel */
"32 32 70 1 ",
"  c #010101",
". c #0B0101",
"X c #06060A",
"o c #07080B",
"O c #110100",
"+ c #1A0301",
"@ c #0C0E15",
"# c #11141D",
"$ c #220401",
"% c #171B25",
"& c #171A29",
"* c #1C222E",
"= c #232937",
"- c #232A37",
"; c #222838",
": c #232838",
"> c #232938",
", c #222839",
"< c #232839",
"1 c #232B38",
"2 c #232A39",
"3 c #232B39",
"4 c #283040",
"5 c #293040",
"6 c #283041",
"7 c #293041",
"8 c #293141",
"9 c #B49A0C",
"0 c #B49B0D",
"q c #BE9C0F",
"w c #BD9C17",
"e c #BA9C19",
"r c #BD9D18",
"t c #BB9D1D",
"y c #BA9F1F",
"u c #BD9D1F",
"i c #BCA004",
"p c #BBA10E",
"a c #BC9A21",
"s c #BA9D25",
"d c #B29A3E",
"f c #C19F02",
"g c #CCA604",
"h c #CDA704",
"j c #CCA706",
"k c #DFBA00",
"l c #D1B20E",
"z c #D1B30F",
"x c #DFB608",
"c c #DEB709",
"v c #D7B911",
"b c #D6B912",
"n c #C9AD36",
"m c #FFD716",
"M c #FFD71A",
"N c #FFD71B",
"B c #FED51E",
"V c #F6D624",
"C c #F5D62C",
"Z c #F4D72E",
"A c #F4D72F",
"S c #F2D73A",
"D c #F2D63B",
"F c #F3D73B",
"G c #CCB245",
"H c #CDB34B",
"J c #D1B856",
"K c #F3D54A",
"L c #F2D44B",
"P c #F3D54B",
/* pixels */
" oo@@@#####@#@@@@#@@###@#%@@ooXX",
"###&->1* *%@*XX@o@1>>*1-&-*,*o o",
"  *&**&***%#@#%X *&%**&**&**%&@X",
"@>***&***-X*%#%X *%*%*>1*-****- ",
" *%>*>>55>->*::@o-*>*>*1-*;:---X",
"@*******>*>*3:*#@1>1*1*>*-;*--*#",
"@*155*11>>:3*3:##-566>>>4%-;*>*#",
"&#%&#>55-*;>>*3&&*1***,&**>*#*&@",
"&555*@*&51355OOO+OO851*>>*-6>65&",
"@%**;;>33#53OJHGnnnO*555%*--668&",
"@*11-#*>355*OrvvbprO381*>**-%&* ",
"o&*>-%-***55.vFZVbpO*8#*>*-*1*>%",
"@>>*5&>>55*3OPFZAPpO***156>*11>&",
"@6&>*>1>*533OPFZAFbO55#*5**&1->%",
"@#>>%>*>535*OPFZASPO15*51566>6#@",
"@#%Xo @ #X##OPFZASPO####@@%@o@X#",
"X###oo@@*#*# LDAASbO* *# @%###@o",
"@@*%%*%51*5*OLDAASw.6%>->*-*->@#",
"@%>>#>11->#>ObDDCbpO1*5*5@--*>1@",
" 65*>5>>1**5Owbbki0O*55#--*#>>5%",
" 1>**#:>5*#*Ohgch9sO*#%%*-1****&",
"#>1>%->:111*3+je9q+5**5>*#6**>>X",
"&33=%*;-1>18*$hckeO*1>>X*&>1>51&",
"#%-1;-;%13**5.hzleO%-%%*%*#*%*1%",
"@5:>>55>16***.hMMt.3>>*>***>666#",
"&3*****5#*3*8.hmMaO*-1*1*6>*1*>&",
"&3*3**&>&1&*3$jxcy.51-***%->666&",
" 355>-*-11558.jVMy.>>>616511*>*@",
"@*&&****5*8*5.gBMa.3%>>**>&>>66#",
"#o5>>*--*5**5.grad.8#>>*>%&>,1#%",
"#%X-5&>*5*1*6>....=*>*>*::66>###",
"oX%#@@&&&&&&&@####%%&&&&&&&#%%@%"
};
