/* XPM */
static char *_f3bc67045d147319ea40ea417cc29f0Vz45piXYjmvKnhFX[] = {
/* columns rows colors chars-per-pixel */
"32 32 73 1 ",
"  c #010101",
". c #0B0101",
"X c #06060A",
"o c #07080B",
"O c #110100",
"+ c #1A0300",
"@ c #0C0E15",
"# c #11141D",
"$ c #220501",
"% c #171B25",
"& c #171B29",
"* c #1D222E",
"= c #222937",
"- c #232937",
"; c #222A36",
": c #232B37",
"> c #222838",
", c #232938",
"< c #222839",
"1 c #232839",
"2 c #222939",
"3 c #222B38",
"4 c #232B38",
"5 c #232A39",
"6 c #232B39",
"7 c #283040",
"8 c #283140",
"9 c #283041",
"0 c #293041",
"q c #293141",
"w c #B49A0C",
"e c #B49B0D",
"r c #BE9C0F",
"t c #BA9C19",
"y c #BD9D18",
"u c #BB9D1C",
"i c #BA9F1F",
"p c #BCA004",
"a c #BAA10E",
"s c #BBA10E",
"d c #BA9D24",
"f c #B29A3E",
"g c #C19F02",
"h c #CDA604",
"j c #CCA704",
"k c #CDA704",
"l c #CCA706",
"z c #DFBA00",
"x c #D1B20E",
"c c #D1B30F",
"v c #DFB608",
"b c #DEB708",
"n c #D7B811",
"m c #D6B911",
"M c #D7B911",
"N c #C7AB36",
"B c #C9AD37",
"V c #C7AA38",
"C c #FFD716",
"Z c #FFD71B",
"A c #FFD51C",
"S c #F6D624",
"D c #F4D62E",
"F c #F4D72E",
"G c #F5D72E",
"H c #F2D73A",
"J c #F3D73A",
"K c #F3D63B",
"L c #F2D73B",
"P c #CDB245",
"I c #CDB34B",
"U c #D1B956",
"Y c #F3D54B",
/* pixels */
" oo@@@#####@#@@@@#@@###@##@@XoXX",
"###%,6,* *%@*Xo@o@,6,*>>*=*>*o o",
"  *&**&***%#@#%o *%%*=%**%**%%@o",
"@,***%***=X*%#%X *%*&&=3*=****= ",
" *%=*,,q9q*6*,,@o,*,*,*6,*=====o",
"@*******,*,*,,*#@,=6*,*=*=,*6=*#",
"@*q0q*,6,=,,*,,#%,999=>9q&==*,*#",
"%#%%#=qq,*>,6*,&%&,***,&**=*#*%@",
"&006*o*%,6,q0OOO+O+qq636,*=99qq&",
"@%**6,qq6#qqOUIPVBNO*q66%*,=999&",
"@*66,#*,666=OyMMMsyO6q6*=**=%%* ",
"X%*5,&,*==q6.MKGSMsO=q#*6*=*6*=#",
"@5>*0%*,6q*q+YKGFYs.***,00>*36=&",
"@q&0*=q**q*6OYKGFKMOqq#*0***3:,%",
"@#>>%,*,q6q*.YJGFJYO,q*q=q00qq#@",
"@%#XX @ #X##OYJGFJYO###@@@#@X@X#",
"X###oX@@*#*#.YKFGJM.*.*# @%###@o",
"@@;#%*%q5*q*.YKFGJs.q#6*6=;*,:@#",
"@&55#5;q*q#5OMKKGMsO6*6*qo;;*;6@",
".5q*55;55**qOyMMzpeO3qq#33*#;5q&",
" 5;**#-5q*#*+ilbggdO*#%%*5-****&",
"#;51%-55:6:*6+jwer+0**q,*#5**55o",
"&06-%*;6;;6q*$lbvtO*,=5o*%;-555&",
"#%1;555#56**9.jcxuO%*&&*%;#;%*5%",
"@0=5;qq5=9***.lCZy.5;5*-***;qq0#",
"&>***&*0#*9*9.lJZdO*-5*-*q5*5*1&",
"&1*5**&5%=%*6$lJJiO05****#;5000&",
" ;005-*5,,q9q.lZZu.5;0q5000-*>*@",
"@*&&****q*q*q.hZZd.q%1;**5&==q,%",
"#oq5-*--*0**,.hydf.,#5-*5%&>==##",
"#%X55%5;0*0*qq....=*5*5*55q0q#%#",
"oX#%@@&%&&&&&o##%##%&&&&&&&#####"
};
