/* XPM */
static char *b663f2dbc24241ff824f41a495b7a2bajJuTsC4hL5TXxf95[] = {
/* columns rows colors chars-per-pixel */
"32 32 141 2 ",
"   c #000006",
".  c #0C0400",
"X  c #02030C",
"o  c #06080D",
"O  c #08090E",
"+  c #130600",
"@  c #150800",
"#  c #171406",
"$  c #171508",
"%  c #020611",
"&  c #050912",
"*  c #0B0D16",
"=  c #060D18",
"-  c #0A0E19",
";  c #0D131D",
":  c #171414",
">  c #1C1B16",
",  c #12141D",
"<  c #181319",
"1  c #1C1C1A",
"2  c #210700",
"3  c #230A00",
"4  c #290E00",
"5  c #242316",
"6  c #22221B",
"7  c #3A2E18",
"8  c #3B3014",
"9  c #0E1521",
"0  c #111521",
"q  c #161B26",
"w  c #181B25",
"e  c #151B29",
"r  c #181C28",
"t  c #1D222D",
"y  c #1C2230",
"u  c #222224",
"i  c #292826",
"p  c #212129",
"a  c #25282F",
"s  c #292A2B",
"d  c #332F2C",
"f  c #333027",
"g  c #31302C",
"h  c #232735",
"j  c #232935",
"k  c #2D2D34",
"l  c #232A38",
"z  c #2A2F3D",
"x  c #312F30",
"c  c #2E3131",
"v  c #2A303D",
"b  c #303032",
"n  c #293040",
"m  c #BE9E0D",
"M  c #BA9C1A",
"N  c #B79C27",
"B  c #B99C26",
"V  c #B69C2A",
"C  c #B99D2C",
"Z  c #B49B37",
"A  c #B79C3A",
"S  c #BEA433",
"D  c #BEA43E",
"F  c #C29E02",
"G  c #C4A109",
"H  c #DCB70E",
"J  c #DEBA0A",
"K  c #CAA717",
"L  c #C7A61A",
"P  c #DAB615",
"I  c #D8B817",
"U  c #D5B71C",
"Y  c #DAB71B",
"T  c #CFB022",
"R  c #D7B426",
"E  c #C1A631",
"W  c #D2B634",
"Q  c #FBD71F",
"!  c #FBD726",
"~  c #F6D62D",
"^  c #FBD52A",
"/  c #F5D535",
"(  c #F3D53D",
")  c #AC994D",
"_  c #A99652",
"`  c #AC9A53",
"'  c #A79358",
"]  c #BCA247",
"[  c #B8A155",
"{  c #B9A35A",
"}  c #BCA967",
"|  c #C6AE40",
" . c #C3AA50",
".. c #C1A953",
"X. c #C1A951",
"o. c #C4AC52",
"O. c #C8AF5D",
"+. c #C9B252",
"@. c #CAB353",
"#. c #CAB451",
"$. c #C8B153",
"%. c #C8B165",
"&. c #CBB770",
"*. c #EFD648",
"=. c #EFD54A",
"-. c #EFD34C",
";. c #EBD54C",
":. c #F0D540",
">. c #F2D440",
",. c #F3D445",
"<. c #F4D644",
"1. c #F2D44B",
"2. c #EFD356",
"3. c #EDD456",
"4. c #EDD455",
"5. c #EED35E",
"6. c #EDD45D",
"7. c #F1D452",
"8. c #F0D552",
"9. c #F0D554",
"0. c #F1D454",
"q. c #F1D456",
"w. c #F0D457",
"e. c #F0D456",
"r. c #F1D454",
"t. c #F0D459",
"y. c #F0D459",
"u. c #E8CF68",
"i. c #E8D06C",
"p. c #EAD16C",
"a. c #E8D171",
"s. c #E8D174",
"d. c #E6D07A",
"f. c #E8D078",
"g. c #FFEB6B",
"h. c #FAE675",
"j. c #FFEC77",
"k. c #C3B682",
"l. c #CFC28D",
"z. c #FEED91",
"x. c #FFEEA2",
/* pixels */
"  o O * * - 0 , ; , , * ; * * * - , - * 9 0 0 - 0 9 ; * o o o o ",
", < , w j j l p X t 1 & t o O * & * j h l y j j t h t t t o   O ",
"    t q y t r t t t t , * , w o   p r r t t q y t q t t 1 t * o ",
"* s t t t e t t t a X t q ; w & X t q p e t h h t h t t y t s   ",
"  t r y t l h z n v y l t h j - % j y h y l y l j y l l y l l & ",
"* t t t t y y y l y l y z j t 0 - j h l y h y l y l l y l y t , ",
"* t v z v y l l l l h h t h h 9 0 j v n v h l v v t l l y y t , ",
"w , e e 9 h n n y y h j i t i > > 6 s u t y h e t t y y 9 t t = ",
"q v v v t = t e v l l c . + + @ @ @ @ . c j y j y y l v v v v e ",
"* q y y l j v v l ; c . k.&.%.O.o.+.{ } . g v v t y l l v v v e ",
"- t l l l ; ; j t c . l.z.j.g.=.( ( ( 3.) . 1 y y y y j e e y o ",
"o q t l h q q t t c + x.h.;.=.( ( ~ ~ :.#.@ 6 t l y l y j t l ; ",
"= j j t v e , h v 6 + d.6.8.6.E S 8.*.=.#.@ 5 t v v l y l l j q ",
"* v q v t h t t l 6 @ s.y.3.] 3 3 D 4.8.#.@ 6 y v y y y l j l ; ",
"* , k h w j t t v 5 @ a.y.y.] 3 3 ] y.9.#.. 5 t l v v v v v , * ",
"* , , & &   * * ; $ @ i.3.3.] 3 3 ] y.2.#.# $ 9 q = ; * = * o , ",
"O , , , o , * * , # @ u.7.7.D 2 3 ] 9.e.+.@ $ , e e q 9 ; , * o ",
": * t ; w t = v p 5 @ p.1.,.7.B N 3.1.W +.@ 5 t z y h t l j * , ",
"- w l j ; j q v t 5 @ p.( ~ ~ ~ / U U W o.+ d , z = h h t l l * ",
"  v v t j v t y q 6 . ) 4./ ! ! J I T | _ @ s % t j t 9 l y v t ",
"X j h t t , h e t , g + ` C F ! P F Z ' + s k q y l l y t t t t ",
", h h h q j v h h j h d + 4 K ^ P M 2 + : v v r v v n v t l y o ",
"r z z y e t y h e t z b 7 4 K ^ P B @ d b h h ; t q h h l v v e ",
", r l l l l h ; v t v k + [ K ^ I C + k h q r h e h 9 t e y l 9 ",
"- z h l l v v y h t y s + a.( ^ I N + k y l y h y y y l n n v 9 ",
"r j y y t y y y z t v 6 + A G ^ I N . p l n y l y v l y l y y t ",
"r h t h y y y h q j - : 8 4 K ^ I C . k v t e y t 9 y l n v n t ",
"X h z z v h y h q j v b . { L ~ R C + v t v n v v v n l y l t = ",
"* t q q t y t t v 0 y g + f.1.( R Z + p q h j y y y t h y v v 0 ",
", o v v t t h l y r y g . _ Z V Z ` . p , h j y l e e h l l 0 0 ",
", < & j v q v t z y , p d . . + . . u t j t l y l l v v v 0 q , ",
"o o , ; ; = e e q q - * r < < < < < , q e e e e r r t 0 0 , , , "
};
