/* XPM */
static char *_ce9ae834d8a4b34ba7fcf0f391f766coWsSr4Jb9UGX99kB[] = {
/* columns rows colors chars-per-pixel */
"32 32 78 1 ",
"  c #010101",
". c #0D0201",
"X c #06070A",
"o c #06080B",
"O c #140101",
"+ c #1A0300",
"@ c #0C0E15",
"# c #11141E",
"$ c #210400",
"% c #171B25",
"& c #171B28",
"* c #1D222E",
"= c #222937",
"- c #232938",
"; c #293041",
": c #BD9D0E",
"> c #BD9D15",
", c #B79819",
"< c #BB9D1C",
"1 c #B59B26",
"2 c #BB9C23",
"3 c #B39A2B",
"4 c #B89C29",
"5 c #B49A34",
"6 c #B29B3D",
"7 c #BFA537",
"8 c #C49E00",
"9 c #CCA503",
"0 c #CFA801",
"q c #D0A800",
"w c #DEB706",
"e c #DEB904",
"r c #D1B30E",
"t c #C6A617",
"y c #C8A615",
"u c #CFB314",
"i c #D4B616",
"p c #D7B914",
"a c #D8B813",
"s c #D7B71D",
"d c #D5B918",
"f c #E0B608",
"g c #C5A624",
"h c #C2A52B",
"j c #CDB024",
"k c #D5B724",
"l c #C1A532",
"z c #C8AD37",
"x c #FFD90E",
"c c #FFD716",
"v c #FDD916",
"b c #FCD61C",
"n c #FBD81E",
"m c #F7D725",
"M c #FCD622",
"N c #F6D62D",
"B c #F5D634",
"V c #FBD432",
"C c #F3D63A",
"Z c #AB9641",
"A c #AE9B44",
"S c #B9A254",
"D c #CDB245",
"F c #CCB34A",
"G c #D1B954",
"H c #CDB667",
"J c #CAB76A",
"K c #EED444",
"L c #F2D54B",
"P c #FFF256",
"I c #FFF15F",
"U c #D8C36C",
"Y c #D9C271",
"T c #FFE664",
"R c #FFF06B",
"E c #FEEF73",
"W c #FFEE7F",
"Q c #FEF681",
/* pixels */
" oX@@@#####@#@@@@@@@###@##@@oooX",
"###%---* *%@*Xo@@@=-=*==*=*-*o o",
"  *%**&***%#o#%o *%%**%**%**%%@o",
"@=***%***=X*%#%o *%*%*==*=****= ",
" *%-*==-;;*=*--@o-*-*-*=-*=--==o",
"@******=-*-*--*#@---*-*=*--*-=*#",
"@*;;-=---=--*=-##=;;;=-;;%==*-*#",
"%#%%#-;--*=--*-&&*-***-%**-*#*&o",
"%;;;*@*%;==;.OOOOO+O;-*--*=;;;;&",
"@%*===-;-#;.JGFDzzzSO;;;%*==;;;&",
"@*===#*-=;OYWRPNmnnB4 -*=**=%%* ",
"X%*=-%-*;.UQTKCNmnvms3.;-*=*-*=#",
"@=-*;%==.HEKLgl77hyBpjA.;;-*---&",
"@-%;*-;-OGICg+OOO+$>pu5O;***---#",
"@#--%-;;OFPBh+@###+4du5O-;;;;-#@",
"@%#XX &&ODNNh+@ ##+1du5O&@%@o@o%",
"o###o#%*Ozmny+OO.O+,pu5.&&%###@o",
"@@*#%*%;OSBnV:2331,kijZ.;*-*--@%",
"@%-=#==--.1BnvbmNpadj3.;-@--*==@",
" ;;*=;=;-;+1Bnxceerj1+;**-*#=-;%",
" -=**#=-;;;.A>8ce94Z.-==*-==***&",
"#=--#=-=---;O$9bw:+.#;;;-;;-*--X",
"*-;***====;;O$9bw,O;;==#=%=----&",
"#%--===%-;-oSgqbw,O-=%%*%-#***-%",
"@;===-;-=-;.lVbce<.==-=-***--;;#",
"&-=*&=*;;;;O398ce<.*--*-=--=-*=&",
"&-*-**%--=%*+$0be2.;-*%**#--;-;&",
" -;;--*---; Sg0bf2O;*;;-;;--=-=@",
"@*%&=***;*;.7VMMf2.;%=-**-*==-;%",
"#o;;**==*;;.6t>>26.-#--*-%%-==##",
"##o-;%-=;*;;......=*-*-*--;;-###",
"oo##@@&%&&&&&####%#%&&&&&&%#%#%#"
};
