/* XPM */
static char *_b4ca5689a5841b0caf3fc129f8e3e74R7TOi49YInQghVtj[] = {
/* columns rows colors chars-per-pixel */
"32 32 86 1 ",
"  c #010101",
". c #0C0100",
"X c #06070A",
"o c #07080B",
"O c #140101",
"+ c #1A0300",
"@ c #0C0E15",
"# c #11141E",
"$ c #200501",
"% c #171B25",
"& c #171A28",
"* c #1C232E",
"= c #232937",
"- c #232938",
"; c #293041",
": c #BE9D0D",
"> c #BD9D16",
", c #B69919",
"< c #BC9D1B",
"1 c #B59B27",
"2 c #BB9C23",
"3 c #B39A2C",
"4 c #B89C29",
"5 c #B59B34",
"6 c #B09B3F",
"7 c #BEA436",
"8 c #C49E00",
"9 c #CBA504",
"0 c #D0A901",
"q c #DABB05",
"w c #D0B30E",
"e c #DEB40B",
"r c #C7A617",
"t c #C9A615",
"y c #CFB215",
"u c #CFB01E",
"i c #D5B716",
"p c #D7B813",
"a c #D8B913",
"s c #D7B61D",
"d c #D4B918",
"f c #C5A624",
"g c #C2A52A",
"h c #CCB025",
"j c #D5B625",
"k c #C1A432",
"l c #C8AD36",
"z c #C7AC38",
"x c #FED717",
"c c #FCD917",
"v c #F8D71B",
"b c #FBD91F",
"n c #F7D724",
"m c #F6D725",
"M c #F8D620",
"N c #F7D62A",
"B c #F5D62C",
"V c #F2D735",
"C c #F4D734",
"Z c #F6D634",
"A c #FBD530",
"S c #F3D73B",
"D c #AA9441",
"F c #AE9B44",
"G c #B6A153",
"H c #C0AA4B",
"J c #CDB245",
"K c #CCB345",
"L c #CCB248",
"P c #CCB24B",
"I c #D1B852",
"U c #D1B957",
"Y c #CCB667",
"T c #CBB66A",
"R c #EFD545",
"E c #F1D547",
"W c #F3D44B",
"Q c #FFF254",
"! c #FFF05F",
"~ c #D9C26C",
"^ c #D9C271",
"/ c #FEE764",
"( c #FFF16A",
") c #FEEF73",
"_ c #FEEE7E",
"` c #FFF680",
/* pixels */
" oX@@@%####@#@@@@#@@###@##@@XoXo",
"###&=-=* *%@*Xo@o@=--*=-*-*-*X o",
"  *&**%***%#o#%o *%%**%**%**%%@o",
"@=**&%***=X*%#%o *%*%*=-*=****= ",
" *&==--;;;==*--@o-*-*-*-=*==-=-o",
"@**=&***-&=*--*#@---*-&=*=-*==*#",
"@*;-;*---=--*--##-;;;=-;;%==*-*#",
"&#%%#-;;-*---*-&&*-***-%**=*#*%@",
"&-;;*@*%;==;.OOOOO+O;=*--*=;-;;&",
"@%*===-;-#;.TULKlllGO;;;%*-=;;;*",
"@*===#*-=;O^_(QBnMMC4 -*-**=%&* ",
"X%*=-&-*;.~`/RSBnbcMs3.;-*=*-*-#",
"@--*;%*=.Y)EWfk7kgtCphF.;;=*---&",
"@;%;=-;;OI!Vf$OOO+$<py5O;***---#",
"@#--%=;;OLQV7+@###O4dy5O-;;;;-#@",
"@##o. &&OKCNgO@ ##O1dy5O&@##o@X%",
"o###o#%*+lncr$OOOO+,iy5O%&&###@o",
"@@*#%*%;.GVbA:2331,jdh6.;*-*--@#",
"@*--#==;;O1ZbcvnBaaps3O;;X--*=-@",
" --=--*;-;O4Vcccxqwh3O;**=*#--;&",
" -=**#=-;;;.Fr9ex82D.;-=*=-****&",
"#---%=-----;O$9ec:+.#;;-;;;;*-=o",
"&-;***=-=***-$0ex<OO---#*%=--;;&",
"#*=====#-***=$0ex<gG.&%-%=#*%*=#",
"@;-==;;=#**-=$0exAAk -*-***=;;;#",
"&-*****;****#$0ex884.;*=*;-*-*-&",
"&-*-***==%@#*$0ex2.O;*%**#=-;;;&",
" -;;-=*=-*-**$0ex<f7.;;;;;;=*-*@",
"@*%&=***;#*;*$0exAAk.=-**=*=-;;#",
"%o;;**==*;*-*$>><<rk.==*-&&--=##",
"##o-;%==;**&#*.... O-=-*==;;;###",
"Xo##@@%%&&&&@%####%&&&&&&&&####%"
};
