/* XPM */
static char *b267a0c1cce64dd1e7c0d4917fd0bb83KITc8VT18Rux7mdl[] = {
/* columns rows colors chars-per-pixel */
"32 32 94 2 ",
"   c #010101",
".  c #0D0100",
"X  c #06060A",
"o  c #06080B",
"O  c #140100",
"+  c #1A0300",
"@  c #0C0E15",
"#  c #11141E",
"$  c #220400",
"%  c #171B25",
"&  c #171B29",
"*  c #1D232F",
"=  c #222937",
"-  c #232938",
";  c #293141",
":  c #BD9C0D",
">  c #BC9D15",
",  c #B69919",
"<  c #BB9D1C",
"1  c #B59B27",
"2  c #BB9B22",
"3  c #B39B2B",
"4  c #B89C29",
"5  c #B49B34",
"6  c #B39B3D",
"7  c #BFA436",
"8  c #C49E00",
"9  c #CCA503",
"0  c #CEA801",
"q  c #D0A901",
"w  c #DEB706",
"e  c #DEBA04",
"r  c #D0B30E",
"t  c #DEB50A",
"y  c #C7A717",
"u  c #CFB315",
"i  c #CEB01E",
"p  c #D7B813",
"a  c #D8B913",
"s  c #D7B61C",
"d  c #D4B918",
"f  c #C5A624",
"g  c #CCB025",
"h  c #D5B625",
"j  c #C1A432",
"k  c #C9AD36",
"l  c #C7AC39",
"z  c #FFD90E",
"x  c #FED717",
"c  c #FCD916",
"v  c #F9D71B",
"b  c #FED61C",
"n  c #FBD81D",
"m  c #FBD81F",
"M  c #F7D724",
"N  c #F6D725",
"B  c #F8D621",
"V  c #FED522",
"C  c #F7D72A",
"Z  c #F5D62C",
"A  c #F5D72E",
"S  c #F4D62F",
"D  c #F7D62E",
"F  c #F2D735",
"G  c #F5D534",
"H  c #F4D735",
"J  c #F9D731",
"K  c #FCD433",
"L  c #F2D439",
"P  c #F3D73A",
"I  c #AA9641",
"U  c #AF9B44",
"Y  c #B7A152",
"T  c #B8A255",
"R  c #C1AB4B",
"E  c #CDB245",
"W  c #CCB249",
"Q  c #CCB24B",
"!  c #D1B953",
"~  c #D1B957",
"^  c #CDB667",
"/  c #CBB66A",
"(  c #EFD545",
")  c #F1D547",
"_  c #F3D54A",
"`  c #FFF254",
"'  c #FFF05F",
"]  c #D8C26C",
"[  c #D8C271",
"{  c #FEE764",
"}  c #FEF06A",
"|  c #FEEF73",
" . c #FEEE7E",
".. c #FFF780",
/* pixels */
"  o X @ @ @ # # # # # @ # @ @ @ @ # @ @ # # # @ # # @ @ o o o o ",
"# # # & - = - *   * % @ * X o @ o @ - - = * = = * = * - * o   o ",
"    * & * * & * * * % # @ # % o X * % % * * % * * % * & % % @ o ",
"@ = * * * & * * * = X * % @ % o   * % * % * = = * = * * * * =   ",
"  * & = * = = ; ; ; * - * - = @ o = * - * = * = = * = = - = - o ",
"@ * * = * * * * = * = * = - * % @ = - - * - * = * - = * - = * # ",
"@ * - ; ; * - - = - = - * = - # # = ; ; ; = - ; ; % = = * - * # ",
"& # % % # = ; ; - * = = - * = & & * - * * * - % * * = * # * % @ ",
"& - ; ; * @ * % ; = = ; . O O O O O O O - = * - - * - ; ; ; ; & ",
"@ & * = = = - ; - # ; . / ~ W E k k k Y O ; ; ; % * = = ; ; ; & ",
"@ * = = = # * - = ; O [  .} ` S N n n F 4   - * = * * = % % *   ",
"X & * = = % - * ; . ] ..{ ( P C M B c M d 7 O ; - * - * - * - # ",
"@ = - * ; % = = . ^ | ) _ f 7 7 7 f y G a g U . ; ; - * - - - & ",
"@ ; % ; * - ; ; O ! ' L f $ + O O + $ > a u 5 O ; * * * - = - # ",
"@ # - - % - ; - O W ` F 7 + @ # # # O 4 s u 5 O - ; ; ; ; ; # @ ",
"@ # # o o . & & O E S C 4 + @   # # O 3 d u 5 . & @ # @ o @ o # ",
"o # # # o # % * O l N n y + O O O O + , a u 5 . & & % # # # @ o ",
"@ @ * # * * % ; . R F n J : 2 4 3 1 , h d g I . ; * = * = = @ # ",
"@ * = - @ = = ; ; . 4 J V c v B S p p p i 3 O ; ; @ = = = = - @ ",
"  - ; * = ; * ; - ; O 1 F b x z e e r g 3 O ; * * = * # = = ; & ",
"  - - * * # = = - ; ; O U > 8 b e 8 2 I . ; - - * = - * * * * % ",
"# - - - % = - = - - - ; O $ 9 b e : + O # ; - ; ; ; ; ; * = = o ",
"& ; ; * * * * = = - ; ; O $ 9 b w , O ; ; = - # * % - - - ; ; & ",
"# % = = = = = % - ; - o Y f q b w < O - * & % * & = # * % * = # ",
"@ ; - = - ; ; = = ; ; . 7 S b x e < . - * - * = * * * = ; ; ; # ",
"& - * * * * * ; ; ; ; . 4 8 8 x e < . * = ; * = = - - * - * = & ",
"& - * - * * % - - = % * + $ q b e 2 O ; ; * % = * # - - ; - ; & ",
"  - ; ; ; = * = - - ; . T f 9 b e 2 O - * ; ; - - ; ; = = = * # ",
"@ * & & * * * * ; * ; . j K V b t < . ; % = = * * - * = = - ; % ",
"% o ; - * * = = * ; ; . 6 < > > 2 U . ; # = = * - % % = = = # # ",
"# # o = ; % - = ; * ; ; . . . . . . * * = * - * - - ; ; - % # # ",
"o X % # @ @ & % & & & & & # % # # # # & & & & & & & % # % # # # "
};
