/* XPM */
static char *ef0ce6baac124306f4b61e76494ce0f8mTrBi7jf8FxrqXiO[] = {
/* columns rows colors chars-per-pixel */
"32 32 109 2 ",
"   c #1F1A17",
".  c #2B1614",
"X  c #231B17",
"o  c #2B1B16",
"O  c #241D18",
"+  c #2C1F18",
"@  c #3D1110",
"#  c #341A15",
"$  c #262019",
"%  c #2D231A",
"&  c #302116",
"*  c #3D2417",
"=  c #342319",
"-  c #38271A",
";  c #332C1E",
":  c #3E2C1C",
">  c #400E0F",
",  c #4B0D0D",
"<  c #560F0E",
"1  c #421615",
"2  c #4D1B14",
"3  c #5C1312",
"4  c #661614",
"5  c #691212",
"6  c #721414",
"7  c #7C1515",
"8  c #432011",
"9  c #482413",
"0  c #4E2916",
"q  c #452A1B",
"w  c #492E1C",
"e  c #542C1C",
"r  c #54321D",
"t  c #5E341C",
"y  c #573C1F",
"u  c #6C2A0A",
"i  c #722F0D",
"p  c #643B1F",
"a  c #6B3A1F",
"s  c #7B3411",
"d  c #7C4318",
"f  c #5D502D",
"g  c #734321",
"h  c #744C22",
"j  c #7C4B22",
"k  c #62522E",
"l  c #7B5224",
"z  c #841617",
"x  c #891717",
"c  c #8C1819",
"v  c #961A1A",
"b  c #9D1B1B",
"n  c #AD1E1D",
"m  c #833A15",
"M  c #BE2121",
"N  c #8B4018",
"B  c #95471C",
"V  c #9A4A1F",
"C  c #814321",
"Z  c #924A22",
"A  c #9E4E22",
"S  c #8E5E27",
"D  c #9A5A2B",
"F  c #A75325",
"G  c #A95525",
"H  c #AF5A27",
"J  c #B15D27",
"K  c #97672B",
"L  c #937E3F",
"P  c #A0692B",
"I  c #BE6B2A",
"U  c #A77531",
"Y  c #C16D2B",
"T  c #C4712D",
"R  c #CA772D",
"E  c #AD8138",
"W  c #C7802F",
"Q  c #D48230",
"!  c #D98731",
"~  c #E69434",
"^  c #E69534",
"/  c #E69435",
"(  c #E79535",
")  c #EAA03D",
"_  c #9F8441",
"`  c #CE9B49",
"'  c #D59B46",
"]  c #D4B756",
"[  c #D4B856",
"{  c #E4A242",
"}  c #EEAD45",
"|  c #E5AC4A",
" . c #EFB348",
".. c #F0B54A",
"X. c #E3B452",
"o. c #E4B453",
"O. c #E8B853",
"+. c #E9BC56",
"@. c #F3BE51",
"#. c #E8C258",
"$. c #F6C656",
"%. c #F6C756",
"&. c #F7C657",
"*. c #FAD360",
"=. c #FAD261",
"-. c #FCDA64",
";. c #FCDB64",
":. c #FDDB64",
">. c #FCDA65",
/* pixels */
"    X             X                                             ",
"  o & # X . . # # # # . # # # . # # # # . 1 . # # . . O # # O   ",
"X 8 u u o < < 5 5 5 5 , 5 5 5 5 5 5 5 5 , 5 5 5 5 3 < . u u #   ",
"  8 u u o 5 5 5 5 5 5 , 5 5 5 5 5 5 5 5 , 5 5 5 5 5 5 . u u #   ",
"X 8 m V & v v x c c c 5 c c v c c v c c 6 c v c c v v = A m # X ",
"X 0 B F = v v v v b b 6 b v v v v v b v 6 v v v v v v = F Z * X ",
"X t F F = v v v v v v 6 b v v v v b v v 6 v v v v v v = F F q   ",
"  t G G = b v v v v v 6 v v b b v v v v 6 v v v v v v = F F q   ",
"X t F F = n n n n n n v n n n n n n n n c n n n n n n = F F q   ",
"X t I ! : M M M M M M b M M M M M M M M b M M M M M M : ! I q   ",
"X t T ^ : M M M M M M b M M M M M M M M n M M M M M M : ^ Y q   ",
"X l ^ ^ : M M M M M M b M M M M M M M M v M M M M M M q ^ ~ y   ",
"X l ~ ~ : n n n n n n x n n n n n n n n x n n n n n n : ^ ~ y   ",
"O l ^ ^ : 7 z v v v v 6 v v v v v v v v 6 v v v v z 7 : ~ ^ y   ",
"X l ^ ^ q 5 6 v v v v 6 v v v v v v v v 6 v v v v 6 5 q ( ~ y   ",
"O l  .*.d X O o o o o X . o o o o o . . X o o o o O O d *...y   ",
"O l ..:.>.>.>.>.>.>.>.W   S &.>.*.( K   R >.>.>.>.>.>.>.>. .y   ",
"O h { %.%.%.%.%.%.O.o.P y U @.%.&.} U y P o.+.&.%.&.%.%.%.{ r   ",
"  q j S S S S S S g a - R | E S K #.| R - a g S S S S S S j =   ",
"    X X X O O O O O X = F ' k O ; ] ` F = X X O O O O O O O     ",
"X r Z Z = 3 3 3 3 3 3 @ # _ f   % ] _ = @ 3 3 3 3 3 3 = Z Z :   ",
"X t G G = 5 5 5 5 5 5 > X L k $ ; ] L X > 5 5 5 5 5 5 = G G q   ",
"X l ^ ^ q 6 7 v v 6 5 5 . t ` +.o.D t . 5 5 6 v v 7 6 : ^ ^ y   ",
"X l ^ ^ : v v v v 6 5 v 5 1 C F A = 1 4 v 4 6 v v v v : ^ ^ y   ",
"X l Q I ; v v v v 6 5 v z 4 e r r 2 4 x v 5 6 v v v v - Y Q y   ",
"X p H F = 6 7 v v 6 5 b v v 4 3 3 z v v v 5 6 v v 7 6 = G J w   ",
"X t F F = 5 6 v v 6 5 v v v 6 5 5 c v v v 5 6 v v 6 5 = F F q   ",
"X t F F = X X X X O O O O O O O O O O O X $ O X X X X = F F q   ",
"X t V N & 9 9 t t h l l l l l l l l l l l l h t t 9 8 & m V w X ",
"X 0 s u o u i B F I T R ^ ( ( ( ^ ^ ( ( R T I A N i u o u s *   ",
"  8 u u o u u m F F F H ( ^ ^ ^ ^ ^ ( ( J F G B i u u o u u #   ",
"  X o X X o X $ + % + % = = = = = = = = % & o % X o X X o X     "
};
