/* XPM */
static char *_7640db02b124519e8b271ee88cc8c76YH62nzNcdLsutfVX[] = {
/* columns rows colors chars-per-pixel */
"32 32 156 2 ",
"   c #000106",
".  c #0F0001",
"X  c #02030B",
"o  c #0B030E",
"O  c #05080D",
"+  c #08090E",
"@  c #1C0003",
"#  c #030711",
"$  c #050811",
"%  c #0A0E15",
"&  c #070D19",
"*  c #0A0E19",
"=  c #0D1017",
"-  c #0E151F",
";  c #12151E",
":  c #23040C",
">  c #2E090E",
",  c #3A0000",
"<  c #32060D",
"1  c #3C020A",
"2  c #200C15",
"3  c #2B0A12",
"4  c #220E19",
"5  c #360E17",
"6  c #28151B",
"7  c #3E131C",
"8  c #0E1421",
"9  c #111520",
"0  c #161B26",
"q  c #1A1B25",
"w  c #151B29",
"e  c #181C28",
"r  c #201823",
"t  c #2E1B27",
"y  c #251F2B",
"u  c #361726",
"i  c #391722",
"p  c #341924",
"a  c #3D1E27",
"s  c #3D1E2A",
"d  c #1D222D",
"f  c #1C2230",
"g  c #23202B",
"h  c #2D252F",
"j  c #35222D",
"k  c #3E202B",
"l  c #212735",
"z  c #2B2633",
"x  c #232935",
"c  c #232A39",
"v  c #2B2F3C",
"b  c #3A2A35",
"n  c #322E3A",
"m  c #2A303D",
"M  c #450003",
"N  c #4F0001",
"B  c #4A060E",
"V  c #540000",
"C  c #5D0002",
"Z  c #50030B",
"A  c #420814",
"S  c #4F0E16",
"D  c #4B0F19",
"F  c #500F17",
"G  c #580B13",
"H  c #481117",
"J  c #42131D",
"K  c #55141E",
"L  c #640000",
"P  c #61060D",
"I  c #730004",
"U  c #790000",
"Y  c #77060C",
"T  c #78070E",
"R  c #660C15",
"E  c #680E16",
"W  c #710A12",
"Q  c #7F0D15",
"!  c #6E121D",
"~  c #761119",
"^  c #4C1721",
"/  c #491A23",
"(  c #511722",
")  c #571E27",
"_  c #5D1C24",
"`  c #52202B",
"'  c #452530",
"]  c #293040",
"[  c #B71C17",
"{  c #BD1B11",
"}  c #BF1619",
"|  c #B51D1D",
" . c #BA1A1C",
".. c #B41C21",
"X. c #9E2626",
"o. c #9F2729",
"O. c #A22426",
"+. c #AA2123",
"@. c #A12629",
"#. c #DC0F02",
"$. c #D90E0A",
"%. c #CA1705",
"&. c #CC1B01",
"*. c #CC150A",
"=. c #D41301",
"-. c #DB1201",
";. c #D21900",
":. c #D5110A",
">. c #C31714",
",. c #CB1316",
"<. c #C01912",
"1. c #C21619",
"2. c #E20D00",
"3. c #EA0B00",
"4. c #E41000",
"5. c #FF5E1E",
"6. c #FE6F06",
"7. c #FF6B0B",
"8. c #EF7900",
"9. c #F67500",
"0. c #FB7203",
"q. c #F17800",
"w. c #FF6416",
"e. c #FF6810",
"r. c #FF631B",
"t. c #FF552B",
"y. c #FF572C",
"u. c #FF6324",
"i. c #FF8E07",
"p. c #FF8F07",
"a. c #FF8F08",
"s. c #FF8B0F",
"d. c #FF8C0D",
"f. c #FF8E0A",
"g. c #EF9900",
"h. c #F59600",
"j. c #F59600",
"k. c #FB9203",
"l. c #FC9203",
"z. c #F89600",
"x. c #FA9403",
"c. c #FC9304",
"v. c #FC9204",
"b. c #F29A00",
"n. c #F59800",
"m. c #F39800",
"M. c #FF9108",
"N. c #FFAF08",
"B. c #FFAC0C",
"V. c #FFAE0A",
"C. c #F6B505",
"Z. c #FEB006",
"A. c #FAB205",
"S. c #F7B308",
"D. c #FCB109",
"F. c #FFC616",
/* pixels */
"  O + = = = - ; - ; ; % 8 : N @.@.V : & - - 9 & 9 9 = & O O O   ",
"; ; ; q x x x d X d q % d @ N +.+.V k c f d x x d c d c d O   O ",
"    d ; d d 0 d d d d ; % > I } } U 5 0 d d 0 d d w d d d ; % O ",
"= x d d d 0 d d d c O g 6 M [ :.:.| B p q d c x f c f d d d h   ",
"  d d f d f x m ] ] f j F O.%.#.2.%.o.( p c f c c f l c x x x O ",
"% d d d d d f f f f c i T <.=.y.y.=.>.T 7 c d c d c c d x x d ; ",
"% d c m m d c c c c c /  .#.;.w.r.;.#. .` l c m m w l c d x d ; ",
"0 - 0 d - c m ] c y s E :.2.w.7.7.w.4.*.G i z w f d c d X d 0 = ",
"d x m m d & f w m s W [ =.5.6.d.s.0.5.=. .W u x c d c m m c ] w ",
"+ d d d x x m v z 1 ..=.;.e.s.k.c.s.e.;.-...( n 0 f c c m f ] w ",
"& d x x x - d z / P ,.2.r.0.a.z.c.M.0.r.4.,.E u h d f f 0 % d O ",
"O d d x l 0 d 4 ( O.$.2.7.q.c.h.h.c.q.7.2.$.O.S t 0 c d x 0 x 8 ",
"& x x d v w d s Q 1.-.-.7.8.z.B.B.h.8.7.-.2.<.I k c 0 q d w x 0 ",
"% m 0 m d d y A ..$.-.y.0.c.n.N.N.n.a.6.5.-.$.| K r ; q d d x 9 ",
"= - x x 0 h ' ! ,.2.=.e.0.c.g.D.D.m.c.9.e.;.2.,.C 3 g x z ; 9 % ",
"% ; ; O   . B O.:.4.w.0.M.n.B.A.A.N.z.a.0.w.4.:.X., 2 $   X X ; ",
"O ; ; ; # > L { =.5.7.d.c.m.D.F.F.D.m.k.s.7.5.=.{ C : % ; ; $ + ",
"= % d ; 0 J ..=.;.e.9.c.h.D.S.F.F.S.D.m.c.9.e.=.=.| / d x x O ; ",
"& 0 x c 8 ^ 1.2.w.0.d.h.N.S.C.F.F.C.A.N.z.a.0.w.2.1.H d 0 d x & ",
"  m m d c ) ,.3.w.9.a.h.N.A.C.F.F.C.A.N.h.a.9.w.3.,.1 % d d x q ",
"X x x d e 1 ,.3.r.0.0.M.h.D.D.F.F.C.N.h.a.q.6.5.3.,.K d d d d q ",
"; x c c 0 / ..:.=.w.0.q.c.h.B.D.A.Z.h.c.q.6.w.=.=...J w q d d X ",
"0 v v f 0 t G +.-.-.7.9.8.c.n.B.B.m.c.q.9.7.-.=.+.B s c c m v 0 ",
"8 w l c c z s N 1.:.r.7.0.8.c.k.h.c.q.0.7.r.-.1.V s ; f w f x 8 ",
"& m c c c v n 7 C { =.r.7.9.q.a.a.8.9.7.r.;.<.U J y f c m ] ] 8 ",
"0 c f f f f d b _ X.%.=.r.7.0.0.0.6.7.r.-.%.X.K t m c f c f c w ",
"0 x d c f d w z j K  .$.2.-.w.7.7.w.-.2.:.| B g g 8 c c ] v ] 0 ",
"X x v v m c f c c s ~ ..,.:.&.u.u.&.=.,.| W j f ] m ] f f c d - ",
"% g w w f d f f m q s D R O.{ %.&.{ @.R 1 7 g d f f d c c ] m 9 ",
"; $ v v d d f c f m * y a F Y +.+.I ( k X d d d f 0 w c c f 9 9 ",
"; ; $ z v q ] l m f m x y a : < < 3 4 r d - f 0 d d x m m 9 9 9 ",
"+ X ; 9 & * w w w w w w 0 8 9 ; 9 ; 9 q 0 0 0 0 0 0 e 9 9 9 9 9 "
};
