/* XPM */
static char *_d3bc290b4314852cca95377c3062833P139gezfkjla3jZd[] = {
/* columns rows colors chars-per-pixel */
"32 32 58 1 ",
"  c #000001",
". c #010203",
"X c #020203",
"o c #040606",
"O c #050609",
"+ c #07070A",
"@ c #07080A",
"# c #07080B",
"$ c #06080C",
"% c #07080C",
"& c #0A0D11",
"* c #0B0D12",
"= c #0A0D14",
"- c #0B0C15",
"; c #0C0E14",
": c #0C0E15",
"> c #0D0F17",
", c #10141A",
"< c #10151A",
"1 c #10151B",
"2 c #11131C",
"3 c #10141C",
"4 c #10151D",
"5 c #10141F",
"6 c #12151F",
"7 c #161A24",
"8 c #161B24",
"9 c #171A26",
"0 c #171B26",
"q c #161C24",
"w c #171D25",
"e c #171C26",
"r c #171D26",
"t c #171C27",
"y c #171A28",
"u c #161B28",
"i c #171B28",
"p c #171B29",
"a c #1C232D",
"s c #1C222F",
"d c #1C232F",
"f c #1D232F",
"g c #222836",
"h c #232936",
"j c #222837",
"k c #232A37",
"l c #222B37",
"z c #232838",
"x c #232938",
"c c #232839",
"v c #232939",
"b c #222A38",
"n c #232B38",
"m c #222A39",
"M c #283040",
"N c #293041",
"B c #283141",
"V c #293141",
/* pixels */
" #+;;;73673:3*;;5;;;711-22::+%++",
"666ivvja f7*a+$;$;cckakzshava# %",
"  aiff7afae6&57$ aeefatfs7sfe7:#",
";haaf7ssahos757+Xaefefcnsvsssah ",
" aevfvvVVBavavv;%vahsvfchahvvhv#",
";fffufffvavavva5:vvvavfnsvvavha6",
";fnVVavvvhvhahj52vVVNccnV7hvsva5",
"767e6hVVvajvvsh77svsascesava a7*",
"iVNNa*aynzkasja5=jjBBhavvaknVnVt",
":7sakkNNv72zsjs55abjshvBeskkVcVi",
":fvvk1aczaazsha3=hshjjvavssk7&sX",
"+7fhcya1zayai7s+:78sqaesa7csj7j7",
"-vcaVyacncVcskv:5jjahhjscke7seci",
";N7Vaaa7fcsp1s7*:hjj7sjake57ssc6",
";5jhykVVkasakhh::aea77aay1avhe6*",
";75+  i;6*77+6*555=55*66y*6#   7",
"+772+77;55-&-+:+=#=+==#:o=::57++",
":>757i2ahjaa3*1 #77ajjBBBavavh+3",
":7hv6jyancajahv* a7aehvhsoaaiih:",
"XvVahNaVsfjj3a73*jjvhave7s5*saji",
" jjaa575cfVdhsh5:hsvhsssfccssfai",
"7hvj7hVaefe5ss7:+as7sseefff7uff ",
"iVVaeaahhaahshv*5ajjhea*eehvvVVu",
"5icjvvv5BBehsha15ava7*176h6f7av6",
";NcccVVa*jahshv5*zza6ayaaashVVN7",
"ycsafffVVshsvsh62ak7akazaVvavav7",
"ycacaaehvh7saaj5*akhzawaa2hhVVvi",
" kVVVvavjjN7jjsiiN7z1zzzNNNvsvs;",
"*si7sasaB7jshhi75jaj2pgaacajvVB7",
"7$VBaahhaB&svah27ikc+aayaiijhv33",
"55+vBiBsBsBjsj-2226ea5ayiajNn572",
"++66--iiiyyy77267757yyiiii757273"
};
