/* XPM */
static char *_1ab6cd798594343921f2507d4e039e6OCSJp1vwelnZKkLO[] = {
/* columns rows colors chars-per-pixel */
"32 32 96 2 ",
"   c #040201",
".  c #1D0E07",
"X  c #1E1B16",
"o  c #220707",
"O  c #251108",
"+  c #2B1714",
"@  c #231C16",
"#  c #2A1C15",
"$  c #251D18",
"%  c #2C1F19",
"&  c #341A15",
"*  c #2D2119",
"=  c #302117",
"-  c #3D2417",
";  c #332319",
":  c #39271B",
">  c #3E2C1C",
",  c #430F0E",
"<  c #4C0D0E",
"1  c #530F0E",
"2  c #5C1212",
"3  c #631111",
"4  c #691212",
"5  c #731414",
"6  c #7C1616",
"7  c #5B3D00",
"8  c #422111",
"9  c #492512",
"0  c #4F2916",
"q  c #452B1A",
"w  c #492E1C",
"e  c #54311C",
"r  c #5E341D",
"t  c #573D1F",
"y  c #6C2A0A",
"u  c #6D2A0A",
"i  c #6C2B0B",
"p  c #722F0C",
"a  c #643B1E",
"s  c #7B3410",
"d  c #795300",
"f  c #754C23",
"g  c #7A5225",
"h  c #7A5325",
"j  c #7D5225",
"k  c #831716",
"l  c #841617",
"z  c #8E1819",
"x  c #901818",
"c  c #911818",
"v  c #901918",
"b  c #921919",
"n  c #941918",
"m  c #941819",
"M  c #971A1A",
"N  c #971B1A",
"B  c #971A1B",
"V  c #961B1B",
"C  c #971B1B",
"Z  c #823A14",
"A  c #843B15",
"S  c #95471C",
"D  c #96471C",
"F  c #A57100",
"G  c #B47A00",
"H  c #B47B00",
"J  c #924A22",
"K  c #924A23",
"L  c #9F4D20",
"P  c #9F4C21",
"I  c #A45324",
"U  c #A45225",
"Y  c #A75324",
"T  c #A65225",
"R  c #A75225",
"E  c #A95524",
"W  c #A85425",
"Q  c #AE5A27",
"!  c #B15D27",
"~  c #BE6B2A",
"^  c #C06D2B",
"/  c #C16D2B",
"(  c #C5712D",
")  c #CB772D",
"_  c #C38500",
"`  c #D29001",
"'  c #D29101",
"]  c #E19A01",
"[  c #F0A401",
"{  c #F1A401",
"}  c #FFAE01",
"|  c #D48230",
" . c #E69434",
".. c #E79534",
"X. c #E69435",
"o. c #E79535",
/* pixels */
"X X @ X X X X X X X X X X X X @ X @ X X X X X X @ X X X X X X X ",
"X # = & @ + + & & & & + & & & & & + & & + & & & & + + @ & & @ X ",
"@ 8 y y # 1 2 4 4 4 4 < 4 4 4 4 4 5 4 4 < 4 4 4 4 2 1 # y y & X ",
"X 8 y y # 4 4 4 4 4 4 < 4 ] ] [ [ [ G 4 < 4 4 4 4 4 4 + y y = X ",
"@ 8 Z L = M c c z b z 4 G [ } < 2 } F _ 4 b b v v v b ; D A ; @ ",
"@ 0 D E ; M n b M b n 5 7 G } o < } _   5 M N b M M n ; E D - X ",
"@ @ @ @ @ @ @ @ @ $ @ $ $ ' } @ @ ' _ $ $ @ @ @ @ @ @ @ @ @ @ @ ",
"@                           G d ' '                           X ",
"$   O O   O . . . O O                     . . . O O O   O O   @ ",
"@   . .   . . O O O .   . . . . . . O O   . O O O O .   O O   X ",
"$   . .   . O . . O .   O O . . . . . O   O O . O O O   . O   X ",
"$   O .   O O O O O O   . O O . . O O O   O O O . O O   O O   X ",
"$   O .   O O O O O O   . . O . . O . .   . O O O . .   . O   X ",
"$   O .   O O . . O .   . O . O . O O .   O O O . O .   O O   X ",
"$   . .   . . . O O .   . O O O O O O O   . . O O O O   . O   X ",
"$   . O   . O O . . .   O . . . . O O .   . . . . . O   . O   X ",
"*   . .   O . O . O .   . . O O O . O O   . . O O . .   O O   X ",
"X   . .   O O O O O .   o O . O O O O O   O O . O . O   O O   X ",
"X   O .   O . . O . O   . O . . . . O .   O O O . O O   O O   X ",
"X $ X @ @ $ $ @ @ @ X X * @ @ @ @ @ @ @ @ @ @ $ @ @ @ * @ @ X X ",
"X e K K ; 2 2 2 2 2 , 6 6 6 3 , 2 6 6 k 6 , 2 2 2 2 2 ; K K > X ",
"@ r E W ; 4 4 1 1 < 1 6 6 6 3 < 3 6 6 6 6 1 4 4 4 4 4 ; E E q X ",
"@ h X.X.> 5 6 C C 5 4 C C C 6 3 6 M M N N 4 5 C C 6 5 > X.X.t @ ",
"@ h  .X.> N b C C 5 4 z C C 6 3 6 M b N z 4 5 C N b M > X.X.t X ",
"@ j | ~ : B b M C 5 4 M l B 6 3 6 M M B m 4 5 B M M M : / | t X ",
"@ a Q Y ; 5 6 M C 5 4 b B z 4 , 2 l b B M 4 5 B M 6 5 ; Y ! w X ",
"@ r Y Y ; 4 5 M B 5 4 B B C 5 4 4 z M B M 4 5 m b 5 4 ; Y Y q X ",
"@ a Y U ; @ @ @ $ $ $ $ $ $ $ $ $ $ $ $ $ @ @ @ $ @ @ ; Y Y q X ",
"@ a P A % 8 9 r r f j j j h h h j j j j j j f a r 9 8 * Z P q X ",
"@ 0 s y # y p D U ~ ( ) X.o.o...X.X.X.X.) ( ^ P A p p # i s - X ",
"X 8 y y # y y A Y U P ~ ............X...! Y Y D p p y + i i & X ",
"X @ $ @ @ # @ # % % % * ; ; ; ; ; ; ; ; % % % % @ # @ @ $ @ @ X "
};
