/* XPM */
static char *_b61f3604f6a4c48f805ec1237613ee6FSV2eYejBNKKJRxT[] = {
/* columns rows colors chars-per-pixel */
"32 32 100 2 ",
"   c #010100",
".  c #000001",
"X  c #010103",
"o  c #020203",
"O  c #040708",
"+  c #040709",
"@  c #06060A",
"#  c #06070B",
"$  c #06080B",
"%  c #07090B",
"&  c #06080C",
"*  c #0B0D13",
"=  c #0A0C15",
"-  c #0B0E15",
";  c #0C0E14",
":  c #0D0E14",
">  c #0C0F15",
",  c #0D0F17",
"<  c #10141A",
"1  c #10141D",
"2  c #10141E",
"3  c #13141E",
"4  c #13141F",
"5  c #12151F",
"6  c #161A24",
"7  c #161B24",
"8  c #171B24",
"9  c #171B26",
"0  c #161B27",
"q  c #161C24",
"w  c #171C26",
"e  c #161C27",
"r  c #171A29",
"t  c #161B29",
"y  c #171B29",
"u  c #1C222C",
"i  c #1D222E",
"p  c #1C232E",
"a  c #1D232E",
"s  c #1C222F",
"d  c #1C232F",
"f  c #1D232F",
"g  c #222836",
"h  c #232836",
"j  c #222837",
"k  c #222B36",
"l  c #232B37",
"z  c #222838",
"x  c #222939",
"c  c #232939",
"v  c #232B38",
"b  c #232B39",
"n  c #4E0000",
"m  c #4F0100",
"M  c #4F0001",
"N  c #283041",
"B  c #293041",
"V  c #283141",
"C  c #865716",
"Z  c #875716",
"A  c #875617",
"S  c #865717",
"D  c #875717",
"F  c #AF275E",
"G  c #AE265F",
"H  c #AF265F",
"J  c #AE275F",
"K  c #AF275F",
"L  c #F93F6E",
"P  c #F83F6F",
"I  c #F93F6F",
"U  c #F86F66",
"Y  c #F86E67",
"T  c #F96E67",
"R  c #F96F67",
"E  c #D89F37",
"W  c #F8D96F",
"Q  c #1F2E86",
"!  c #1F2F86",
"~  c #1F2E87",
"^  c #1E2F87",
"/  c #3F7E96",
"(  c #3E7F96",
")  c #3F7F96",
"_  c #3E7F97",
"`  c #3F7F97",
"'  c #7FD8C8",
"]  c #7ED9C8",
"[  c #7FD9C8",
"{  c #7ED8C9",
"}  c #7FD9C9",
"|  c #F8D0BE",
" . c #F8D0BF",
".. c #F9D0BF",
"X. c #F8D1BF",
"o. c #F9D1BF",
"O. c #F8F8F8",
"+. c #F9F9F8",
"@. c #F8F8F9",
"#. c #F9F8F9",
/* pixels */
". $ $ ; ; ; 0 1 6 1 1 * 1 * n n n M n M M M 5 * 5 5 - - & & $ # ",
"5 5 5 0 c c g i . i 0 * i + n n M n M M M M l l i g d c i $ . $ ",
". . i 0 i i 0 i i i q n n n P I I I I W W L M M i q i i 0 q * $ ",
"; h i i i 0 i i i c M I P P F F J J E W W +.M M i h i i i i l . ",
". f w b i c c N N N M I P P F F J J E W W #.M M h i l v h h h $ ",
"; f f f i i i i M n F I P F F F . . . . . . . . . . c f c l f 5 ",
"; f h N N i n n K J J J F . . . . . . . . . . . . . . c d h f 5 ",
"y < 0 q 5 h n n K K J J F . . . . . . . . . . . . . . f . f q * ",
"y N N N i * n M o.o.. . . . R R . . R . . U i c v f h V N v N q ",
"; 0 i i l b n n ..o.. . . . R R . . U . . U c N q f c h N h N e ",
"- i b l l n o.o.C C o.. . R ..| . . | . . o.C C Z Z f h 0 * d . ",
"# 8 i l c n R R C C o.. . . | o.o.o.| o.o.o.| | o.o.Z f h 0 h 6 ",
"- c b g b M R R C A o.. . . o...o.o.o.o.o.o.o.o.o.o.C 0 d 8 h t ",
"- N y b i M . . R R o.. . o.o.o.. . U U R R R U R R C 0 d d c 5 ",
"* 0 h h 9 l . . . . R U R | . . . . . . . . . . . . i c h q 5 - ",
"; 4 5 # . . . . . . R R U | . . . . . . . . . . . . 5 $ . . . 5 ",
"# 6 1 6 O 8 5 - . . A A C U R U R R . . . . . . # * * - 5 8 # # ",
"* ; y 1 0 i 5 i . . A A A R R R R R . . . . . . N i h d h l # 5 ",
"* y g c < g q f N l n K J C C C C A C ! ^ c c c f $ i i q i g * ",
". B N d g V i N n n G G G P ` ` ) ) [ [ ] ^ h q q i 1 * i i h q ",
". c l i f < q 5 n M K K J P ` ` ) ) ] ] ' Q i f f h c i d f i e ",
"3 l c c q c N i M n Z A Z Z ` ` #.#.+.] ' O.^ ^ d i i q q f d X ",
"y b N i q d d h Z Z #.#.@.@.D Z #.+.O.] ' @.Q Q q q h c c N N e ",
"8 0 c h h c c 5 Z A +.#.#.#.D Z #.+.O.] ] O.Q Q 1 h 5 i 0 s g 5 ",
"; c b h b N N i Z Z #.@.#.Z _ ` ` ` ` } } ] ! ! d f i h N N N 5 ",
"t c i i i s i B Z Z @.#.@.Z _ _ ` ` ` ] ] ' Q ! d N l f c d l e ",
"y b s b i i w b Z Z #.#.#.Z _ _ ` ` Q ` ) ! 0 i d 5 h b N N N t ",
". b B B b c i l c c Z Z Z Z Z Z . . A . . h c l N N b v i c i ; ",
", i 0 0 i i i i B 8 Z Z A Z Z A . . C . . i i s i h i h h N N 5 ",
"0 % b N g i h h a N . Z Z Z Z A W W . W W . i q i 0 9 l h c 5 5 ",
"4 4 # g N t c f N i . . . . . . . . . . . . i 8 0 i b N b 4 5 4 ",
"# # 1 0 * < e q y w . . . . . . . . . . . . t t t 0 9 4 8 5 4 5 "
};
