/* XPM */
static char *_865d752a77242d2ea4b108079773624EH6XF2BIvhvSxoth[] = {
/* columns rows colors chars-per-pixel */
"32 32 122 2 ",
"   c #0F0F27",
".  c #110F24",
"X  c #110F25",
"o  c #0E1025",
"O  c #0F1025",
"+  c #0F1225",
"@  c #0F1126",
"#  c #0E1027",
"$  c #0D1226",
"%  c #0F1128",
"&  c #0D1228",
"*  c #121121",
"=  c #101123",
"-  c #131023",
";  c #121123",
":  c #101125",
">  c #121025",
",  c #101126",
"<  c #121026",
"1  c #131126",
"2  c #131127",
"3  c #111226",
"4  c #101227",
"5  c #111227",
"6  c #101028",
"7  c #111129",
"8  c #121028",
"9  c #101229",
"0  c #3A3B4D",
"q  c #3B394E",
"w  c #3B394F",
"e  c #393A4F",
"r  c #3A3B4F",
"t  c #3D3A4D",
"y  c #3C3B4D",
"u  c #3C3A4F",
"i  c #3D3A4F",
"p  c #363A53",
"a  c #373C52",
"s  c #353B55",
"d  c #373B54",
"f  c #363A55",
"g  c #353A57",
"h  c #373B56",
"j  c #363A57",
"k  c #363C54",
"l  c #363C56",
"z  c #373D57",
"x  c #393951",
"c  c #393B50",
"v  c #383A51",
"b  c #3A3B50",
"n  c #393953",
"m  c #393B52",
"M  c #383A53",
"N  c #3A3A52",
"B  c #3B3B53",
"V  c #3C3A50",
"C  c #3D3B50",
"Z  c #3D3B51",
"A  c #3C3A52",
"S  c #3B3C50",
"D  c #3B3C51",
"F  c #3A3C53",
"G  c #3E3C51",
"H  c #3C3D52",
"J  c #383955",
"K  c #393B54",
"L  c #3A3A54",
"P  c #3B3B55",
"I  c #393A56",
"U  c #3A3A56",
"Y  c #3A3B57",
"T  c #3B3B57",
"R  c #3C3954",
"E  c #383C55",
"W  c #3A3C55",
"Q  c #383C57",
"!  c #363B58",
"~  c #373B58",
"^  c #353C58",
"/  c #373C59",
"(  c #393A58",
")  c #383C59",
"_  c #6F6E7E",
"`  c #6D6E80",
"'  c #6E6F81",
"]  c #6D6E82",
"[  c #6C6F82",
"{  c #6C6E83",
"}  c #6D6E83",
"|  c #6E6F83",
" . c #6A6F85",
".. c #696F87",
"X. c #6A6E87",
"o. c #6D6D85",
"O. c #6D6F84",
"+. c #6C6E85",
"@. c #6D6F86",
"#. c #6C6E87",
"$. c #6E6E86",
"%. c #696F89",
"&. c #6B6F88",
"*. c #6A6E89",
"=. c #696E8B",
"-. c #6B6F8A",
";. c #6A6E8B",
":. c #6C6D89",
">. c #6D6F88",
",. c #6D6E8A",
"<. c #6A6D8C",
"1. c #6A6F8C",
"2. c #6B6F8C",
"3. c #706E83",
"4. c #6D7083",
"5. c #6B7084",
"6. c #6B7086",
"7. c #6E7087",
"8. c #6A7088",
"9. c #6A708A",
"0. c #6B718B",
"q. c #6C7089",
/* pixels */
"u u u u r r * _ r u u u u u u u u u * u u u S u u S u t y * C r ",
", , , . , , , , , , , , , , , , , , - . @ @ , , , , , @ , * , , ",
"*.#.x , x *.X.#.*.X.*.*.p a @ ` *.*.( l L X.*.:.E M , r 7.8.*.M ",
"~ h x 7 X.l ~ h ^ l ~ ~ q.8.& #.L ^ <.*.*.l ^ h :.:., 4.h ^ l 8.",
"E M x , 8.l l E ^ ( ^ ~ E E @ [ E h E ) L ( E ) ( L . #.E l ~ ~ ",
"P M C , X.M L E L l L l x M @ x M L M M L E M M E L 8 r L x E L ",
"7 , , - , , , , @ @ @ 7 & @ @ @ @ @ + , & , , , & 7 , , . 8 , , ",
"#.7.r r r ` 3., #.` X.X.8.5.7.#.5.5._ + #.#.#.r ` X.#.#.C C - ` ",
"M E q.#.q.M r , q.L E L E E L L E x u , *.h ( *.L L E L L x , 4.",
"x E l L P M r - q.E L E L R R ( L C C , #.l L L L E L L E x , 4.",
"C r x M x r u * #.x M r S S u M C C r * r r C L x C C x S r - r ",
", , - , , , * , , @ , , - , , @ 7 , * , , , , , , , 8 @ , , , - ",
"X.x S , #.*.*.l E L ~ :.M , 8.*.p h p X.*.X.l x C , L L q.X.*.X.",
"E X.S , *.) ^ *.<.0.<.L r , *.) *.8.*.h ~ ~ h x C @ ( <.E l ~ l ",
"L L M , X.l h ) L ~ ( L r , :.^ h ~ h h h h L L C   :.^ h l L h ",
"E L u , 5.h x L L L ( R G , #.L L L L L L E R x C , L h L L L L ",
"C C u , 7.x S C C C C r t - u M x C R P S S C C r * C x M M S S ",
", , . , , 7 - 2   , @ @ - , , 7 , - - , , , . , , , @ , - - , , ",
"*.X.E E M M , S L *.*.*.X.X.*.*.E x 7 x X.*.*.l L h *.X.M , 7.8.",
"L h <.0.8.M , x *.~ ~ ~ L E ~ ~ E E , #.h l ~ *.0.<.h h S , *.^ ",
"L l L ( L E 7 ` L l L L L ( ( ( L E , #.p E ) ( h h h L M , #.E ",
"l L h L P x @ X.x h L L L L L L R x , #.M L ( L h L L x r , M M ",
"M r r r C C , 4.C x x C C C u r S u , C M M M S r r C C S - r S ",
", , , @ , , , , , , , , - , , , 7 , - , * 5 , 7 @ @ 7 7 , 5 , , ",
"#.M @ #.5.a L E h X.*.#.M , M l *.5.l l l E :.L & #.*.h h l l *.",
"E M 7 X.p *.<.*.*.l ) h r , h <.l l *.<.*.:.^ ^ , #.h <.*.<.<.~ ",
"E S 7 ` E L L ( ( l L E r , *.~ h h ^ L L L ( L , #.x h ( L ( ^ ",
"M M @ 4.x L L E L E L C u , X.E L E E L E L L E , ` x L L E L L ",
"@ @ , , 7 - , , @ @ @ , - - , , & @ , , @ & , , - 7 8 7 , . 7 , ",
"[ #.#.#.M u - ' 7.` #.x S r M x #.` + _ ` #.C x M x x x C * M ` ",
"L L E E E x , ` x E x X.8.*.*.*.E x @ ` L E *.*.7.X.*.*.C - #.x ",
"( ~ L ( R x 7 7.E ( E h l l ^ ^ L M 7 X.E L ^ l l l ~ L C , E l "
};
